<svg id="visual" viewBox="0 0 900 600" width="900" height="600" xmlns="http://www.w3.org/2000/svg" xmlns:xlink="http://www.w3.org/1999/xlink" version="1.1"><g transform="translate(485.80889016066 278.8135295193564)"><path d="M179.6 -218.7C218.1 -181.6 224.8 -111.2 250.9 -33.8C277 43.6 322.5 128.1 296.8 170.1C271 212.1 174 211.8 90.3 237.8C6.6 263.7 -63.7 316.1 -119 305.3C-174.3 294.6 -214.4 220.8 -265.9 146.4C-317.5 72 -380.3 -3.1 -375.8 -72.8C-371.3 -142.5 -299.4 -206.8 -225.6 -237.6C-151.7 -268.5 -75.8 -265.7 -2.7 -262.5C70.5 -259.3 141 -255.7 179.6 -218.7" fill="#a1a987"></path></g></svg>